{
    "asset" : {
        "generator" : "Khronos glTF Blender I/O v1.7.33",
        "version" : "2.0"
    },
    "scene" : 0,
    "scenes" : [
        {
            "name" : "Scene",
            "nodes" : [
                0,
                1
            ]
        }
    ],
    "nodes" : [
        {
            "name" : "Empty",
            "rotation" : [
                0.5,
                0.5,
                -0.5,
                0.4999999701976776
            ]
        },
        {
            "mesh" : 0,
            "name" : "Rhino",
            "scale" : [
                1.0284801721572876,
                0.6180089712142944,
                3.016667366027832
            ],
            "translation" : [
                0,
                1.668165683746338,
                0
            ]
        }
    ],
    "materials" : [
        {
            "doubleSided" : true,
            "name" : "Material.001",
            "pbrMetallicRoughness" : {
                "baseColorFactor" : [
                    1,
                    1,
                    1,
                    1
                ],
                "metallicFactor" : 0,
                "roughnessFactor" : 0.4000000059604645
            }
        }
    ],
    "meshes" : [
        {
            "name" : "Cube.002",
            "primitives" : [
                {
                    "attributes" : {
                        "POSITION" : 0,
                        "NORMAL" : 1,
                        "TEXCOORD_0" : 2
                    },
                    "indices" : 3,
                    "material" : 0
                }
            ]
        }
    ],
    "accessors" : [
        {
            "bufferView" : 0,
            "componentType" : 5126,
            "count" : 2742,
            "max" : [
                0.02092595212161541,
                2.655794143676758,
                1.1785701513290405
            ],
            "min" : [
                -1.1902313232421875,
                -2.692631483078003,
                -1.0358772277832031
            ],
            "type" : "VEC3"
        },
        {
            "bufferView" : 1,
            "componentType" : 5126,
            "count" : 2742,
            "type" : "VEC3"
        },
        {
            "bufferView" : 2,
            "componentType" : 5126,
            "count" : 2742,
            "type" : "VEC2"
        },
        {
            "bufferView" : 3,
            "componentType" : 5123,
            "count" : 4020,
            "type" : "SCALAR"
        }
    ],
    "bufferViews" : [
        {
            "buffer" : 0,
            "byteLength" : 32904,
            "byteOffset" : 0
        },
        {
            "buffer" : 0,
            "byteLength" : 32904,
            "byteOffset" : 32904
        },
        {
            "buffer" : 0,
            "byteLength" : 21936,
            "byteOffset" : 65808
        },
        {
            "buffer" : 0,
            "byteLength" : 8040,
            "byteOffset" : 87744
        }
    ],
    "buffers" : [
        {
            "byteLength" : 95784,
            "uri" : "data:application/octet-stream;base64,"
        }
    ]
}
